<svg xmlns="http://www.w3.org/2000/svg" viewBox="0 0 197.08 158.53"><defs><style>.cls-1{fill:#2a245d;}</style></defs><title>Fichier 7</title><g id="Calque_2" data-name="Calque 2"><g id="Calque_1-2" data-name="Calque 1"><path class="cls-1" d="M187.15,74.64C185.84,33.44,149.19,0,102.36,0A91.77,91.77,0,0,0,49.31,16.43c-4.93,3.49-22.43-5-22.43-5s5.45,19.48-2.46,33.83C19.86,53.54,12.91,61.3,0,61V98.33H22c6,15.68,17.67,29,32.93,38.15v22.06H82.75l3.2-11.28c6.3,1.32,9.66,2,16.41,2,7.06,0,10.72-.76,17.29-2.19l3.2,11.45h27.85V136c14.2-8.64,25.24-21,31.2-35.51a17.24,17.24,0,0,1,15.17-11S187.49,85.3,187.15,74.64ZM32.33,62.87A4.88,4.88,0,1,1,37.21,58,4.88,4.88,0,0,1,32.33,62.87Zm92-43.55c-.87,2.36-2.87,2.45-5.07,1.87a68.26,68.26,0,0,0-34.83.07c-2.48.63-4.63.36-5.39-2.23s1.24-3.57,3.23-4.35a52.87,52.87,0,0,1,19.43-3.25,53.57,53.57,0,0,1,19.49,3C123.49,15.33,125.36,16.56,124.35,19.32Z"/></g></g></svg>