<svg xmlns="http://www.w3.org/2000/svg" viewBox="0 0 253.28 161.1"><defs><style>.cls-1,.cls-2{fill:#2a245d;}.cls-2{stroke:#fff;stroke-miterlimit:10;stroke-width:5px;}</style></defs><title>Fichier 8</title><g id="Calque_2" data-name="Calque 2"><g id="Calque_1-2" data-name="Calque 1"><polygon class="cls-1" points="253.28 46.12 253.28 0 207.16 0 207.16 0 161.04 0 161.04 46.12 161.04 46.12 161.04 92.25 207.16 92.25 207.16 138.37 253.28 138.37 253.28 92.25 253.28 46.12"/><polygon class="cls-1" points="48.62 20.23 2.5 20.23 2.5 66.36 48.62 66.36 94.75 66.36 94.75 20.23 48.62 20.23 48.62 20.23"/><rect class="cls-2" x="2.5" y="20.23" width="138.37" height="46.12"/><polygon class="cls-2" points="48.62 66.36 2.5 66.36 2.5 112.48 2.5 158.6 48.62 158.6 48.62 112.48 94.75 112.48 94.75 66.36 48.62 66.36"/><rect class="cls-2" x="48.62" y="112.48" width="46.12" height="46.12"/><polygon class="cls-2" points="140.87 112.48 140.87 66.36 94.75 66.36 94.75 112.48 94.75 158.6 140.87 158.6 187 158.6 187 112.48 140.87 112.48"/></g></g></svg>